<svg width="741" height="35" viewBox="0 0 741 35" fill="none" xmlns="http://www.w3.org/2000/svg">
<path d="M565 17.5H486V19.5H565V17.5ZM565 17.5C565 8.3873 572.387 1 581.5 1C590.613 1 598 8.3873 598 17.5C598 26.6127 590.613 34 581.5 34C572.387 34 565 26.6127 565 17.5ZM175 17.5V19.5H282V17.5H175ZM175 17.5C175 26.6127 167.613 34 158.5 34C149.387 34 142 26.6127 142 17.5C142 8.3873 149.387 1 158.5 1C167.613 1 175 8.3873 175 17.5ZM35 19.5H141V17.5H35V19.5ZM317 19.5H399V17.5H317V19.5ZM599 19.5H706V17.5H599V19.5ZM299.5 34C308.613 34 316 26.6127 316 17.5C316 8.3873 308.613 1 299.5 1C290.387 1 283 8.3873 283 17.5C283 26.6127 290.387 34 299.5 34ZM723.5 34C732.613 34 740 26.6127 740 17.5C740 8.3873 732.613 1 723.5 1C714.387 1 707 8.3873 707 17.5C707 26.6127 714.387 34 723.5 34ZM17.5 34C26.6127 34 34 26.6127 34 17.5C34 8.3873 26.6127 1 17.5 1C8.3873 1 1 8.3873 1 17.5C1 26.6127 8.3873 34 17.5 34Z" stroke="white" stroke-width="2"/>
</svg>
