<svg width="667" height="35" viewBox="0 0 667 35" fill="none" xmlns="http://www.w3.org/2000/svg">
<path d="M175 17.5V19.5H282V17.5H175ZM175 17.5C175 26.6127 167.613 34 158.5 34C149.387 34 142 26.6127 142 17.5C142 8.3873 149.387 1 158.5 1C167.613 1 175 8.3873 175 17.5ZM35 19.5H141V17.5H35V19.5ZM317 19.5H423V17.5H317V19.5ZM458 19.5H564V17.5H458V19.5ZM599 19.5H667V17.5H599V19.5ZM299.5 34C308.613 34 316 26.6127 316 17.5C316 8.3873 308.613 1 299.5 1C290.387 1 283 8.3873 283 17.5C283 26.6127 290.387 34 299.5 34ZM440.5 34C449.613 34 457 26.6127 457 17.5C457 8.3873 449.613 1 440.5 1C431.387 1 424 8.3873 424 17.5C424 26.6127 431.387 34 440.5 34ZM581.5 34C590.613 34 598 26.6127 598 17.5C598 8.3873 590.613 1 581.5 1C572.387 1 565 8.3873 565 17.5C565 26.6127 572.387 34 581.5 34ZM17.5 34C26.6127 34 34 26.6127 34 17.5C34 8.3873 26.6127 1 17.5 1C8.3873 1 1 8.3873 1 17.5C1 26.6127 8.3873 34 17.5 34Z" stroke="white" stroke-width="2"/>
</svg>
