<svg width="741" height="35" viewBox="0 0 741 35" fill="none" xmlns="http://www.w3.org/2000/svg">
<path d="M457 17.5V19.5H564V17.5H457ZM457 17.5C457 26.6127 449.613 34 440.5 34C431.387 34 424 26.6127 424 17.5C424 8.3873 431.387 1 440.5 1C449.613 1 457 8.3873 457 17.5ZM175 17.5V19.5H256V17.5H175ZM175 17.5C175 26.6127 167.613 34 158.5 34C149.387 34 142 26.6127 142 17.5C142 8.3873 149.387 1 158.5 1C167.613 1 175 8.3873 175 17.5ZM35 19.5H141V17.5H35V19.5ZM344 19.5H423V17.5H344V19.5ZM599 19.5H706V17.5H599V19.5ZM581.5 34C590.613 34 598 26.6127 598 17.5C598 8.3873 590.613 1 581.5 1C572.387 1 565 8.3873 565 17.5C565 26.6127 572.387 34 581.5 34ZM723.5 34C732.613 34 740 26.6127 740 17.5C740 8.3873 732.613 1 723.5 1C714.387 1 707 8.3873 707 17.5C707 26.6127 714.387 34 723.5 34ZM17.5 34C26.6127 34 34 26.6127 34 17.5C34 8.3873 26.6127 1 17.5 1C8.3873 1 1 8.3873 1 17.5C1 26.6127 8.3873 34 17.5 34Z" stroke="white" stroke-width="2"/>
</svg>
