<svg width="741" height="35" viewBox="0 0 741 35" fill="none" xmlns="http://www.w3.org/2000/svg">
<path d="M316 17.5V19.5H423V17.5H316ZM316 17.5C316 26.6127 308.613 34 299.5 34C291.064 34 284.107 27.6695 283.12 19.5H203V17.5H283C283 8.3873 290.387 1 299.5 1C308.613 1 316 8.3873 316 17.5ZM457 17.5V19.5H564V17.5H457ZM457 17.5C457 26.6127 449.613 34 440.5 34C431.387 34 424 26.6127 424 17.5C424 8.3873 431.387 1 440.5 1C449.613 1 457 8.3873 457 17.5ZM35 19.5H115V17.5H35V19.5ZM599 19.5H706V17.5H599V19.5ZM581.5 34C590.613 34 598 26.6127 598 17.5C598 8.3873 590.613 1 581.5 1C572.387 1 565 8.3873 565 17.5C565 26.6127 572.387 34 581.5 34ZM723.5 34C732.613 34 740 26.6127 740 17.5C740 8.3873 732.613 1 723.5 1C714.387 1 707 8.3873 707 17.5C707 26.6127 714.387 34 723.5 34ZM17.5 34C26.6127 34 34 26.6127 34 17.5C34 8.3873 26.6127 1 17.5 1C8.3873 1 1 8.3873 1 17.5C1 26.6127 8.3873 34 17.5 34Z" stroke="white" stroke-width="2"/>
</svg>
