<svg width="706" height="35" viewBox="0 0 706 35" fill="none" xmlns="http://www.w3.org/2000/svg">
<path d="M0 18.5H107M281 18.5H388M422 18.5H529M564 18.5H671M140 18.5H247M280 17.5C280 26.0604 273.06 33 264.5 33C255.94 33 249 26.0604 249 17.5C249 8.93959 255.94 2 264.5 2C273.06 2 280 8.93959 280 17.5ZM421 17.5C421 26.0604 414.06 33 405.5 33C396.94 33 390 26.0604 390 17.5C390 8.93959 396.94 2 405.5 2C414.06 2 421 8.93959 421 17.5ZM562 17.5C562 26.0604 555.06 33 546.5 33C537.94 33 531 26.0604 531 17.5C531 8.93959 537.94 2 546.5 2C555.06 2 562 8.93959 562 17.5ZM704 17.5C704 26.0604 697.06 33 688.5 33C679.94 33 673 26.0604 673 17.5C673 8.93959 679.94 2 688.5 2C697.06 2 704 8.93959 704 17.5ZM139 17.5C139 26.0604 132.06 33 123.5 33C114.94 33 108 26.0604 108 17.5C108 8.93959 114.94 2 123.5 2C132.06 2 139 8.93959 139 17.5Z" stroke="white" stroke-width="3"/>
</svg>
